<svg viewBox="0 0 120 60" fill="none" xmlns="http://www.w3.org/2000/svg">
<path fill-rule="evenodd" clip-rule="evenodd" d="M90.2169 35.6299C86.4447 35.6284 80.8638 35.6279 77.0911 35.6279C74.9188 35.6279 73.9333 36.2469 73.5452 37.5415L72.3093 41.6611C76.082 41.6616 81.6634 41.6636 85.4351 41.6636C87.6079 41.6636 88.5934 41.0441 88.9815 39.7495L90.2169 35.6299ZM96.4598 16.7136C92.6872 16.7121 87.1062 16.7116 83.3341 16.7116C81.1613 16.7116 80.1762 17.3306 79.7882 18.6252L78.5523 22.7448C82.3249 22.7448 87.9059 22.7468 91.678 22.7468C93.8503 22.7468 94.8364 22.1273 95.2239 20.8327L96.4598 16.7136ZM93.4131 26.1715C89.641 26.1705 84.0595 26.17 80.2874 26.17C78.1151 26.17 77.1295 26.789 76.7415 28.0836L75.5061 32.2032L88.6318 32.2047C90.8041 32.2047 91.7892 31.5857 92.1777 30.2906L93.4131 26.1715ZM48.3826 22.7402L45.9079 22.7423C40.9485 22.7448 36.6998 35.6304 42.5631 35.6284L46.3303 35.6279C48.5026 35.6279 50.1157 36.4424 49.4011 38.6376L48.4175 41.6611L44.4221 41.6626L41.1718 41.629C37.0146 41.5863 34.3318 39.4822 33.3654 36.2892C32.3203 32.8324 33.7962 25.6258 38.0793 21.0078C40.5649 18.3295 44.0075 16.7111 48.422 16.7111L56.5775 16.7095L55.3023 20.4865C54.479 22.9255 52.7961 22.7448 51.8356 22.7433L48.3831 22.7402H48.3826ZM63.4559 22.7199L66.7239 22.7204C69.508 22.7219 68.8726 26.3151 67.4636 29.8171C66.2218 32.9058 64.0215 35.6299 61.3957 35.6284L55.9485 35.6279C53.7757 35.6279 52.7739 36.2469 52.3515 37.5415L51.0064 41.6611L55.0013 41.6626L58.9057 41.629C62.369 41.5995 65.2038 41.3409 68.5195 38.2619C72.0226 35.0078 76.108 26.5569 75.4077 21.6696C74.8593 17.8402 72.868 16.7111 68.0464 16.7111L59.2588 16.7095L54.1421 32.1849L57.3929 32.19C59.3277 32.192 60.299 32.2164 61.3279 29.3543L63.4559 22.7194V22.7199ZM91.2162 41.6631H97.4124L100.075 33.8074L102.842 31.3994L105.023 38.5037C105.697 40.6999 106.39 41.6631 107.905 41.6631H112.649L107.755 27.7227L119.524 16.6887H111.923L104.779 24.5439C103.947 25.4593 103.105 26.3594 102.261 27.434H102.189L105.756 16.6887H99.5597L91.2162 41.6631Z" fill="#2D2C2B"/>
<path fill-rule="evenodd" clip-rule="evenodd" d="M10.7508 15.9978C17.7742 14.1366 24.9708 18.5392 26.7718 25.7968C28.5718 33.0544 24.3128 40.4927 17.2898 42.3534C10.2669 44.2147 3.06981 39.8131 1.26932 32.5545C-0.532156 25.2969 3.72834 17.8596 10.7513 15.9978H10.7508Z" fill="#71B52F"/>
<path fill-rule="evenodd" clip-rule="evenodd" d="M6.77902 22.0972C8.5642 22.5157 10.384 22.7562 12.2134 22.8156C15.4161 22.9235 18.9103 22.8298 23.0951 22.8156L24.5597 22.8105C24.9079 22.8089 25.0072 23.2167 24.6236 23.3297L23.3326 23.709C15.482 26.1562 9.26705 29.6572 4.93427 37.006C4.76115 37.2992 4.46607 37.2432 4.5241 36.8955C5.08574 33.5314 5.69656 30.0915 7.19705 27.013C6.32558 25.7525 5.29132 24.2914 4.40263 22.2393C4.30181 22.0066 4.2241 21.8432 4.17296 21.6991C4.04509 21.3397 4.28902 21.1661 4.58312 21.326C4.87722 21.4863 5.96361 21.9084 6.77902 22.0972ZM22.7193 25.2149L24.3693 25.2057L25.8339 25.2006C26.1816 25.1996 26.2805 25.6069 25.8974 25.7199L24.6064 26.0997C16.7562 28.5469 10.7754 31.5622 6.44263 38.912C6.2705 39.2047 5.98525 39.0469 6.03296 38.6972C6.10919 38.1366 6.18541 37.5914 6.26705 37.0579C10.3662 30.8979 15.9049 27.5674 22.7193 25.2159V25.2149Z" fill="white"/>
</svg>
